<svg xmlns="http://www.w3.org/2000/svg" viewBox="0 0 1126.87 437.5"><defs><style>.cls-1{font-size:229.65px;fill:#000;font-family:BebasNeue-Regular, Bebas Neue;}.cls-2{letter-spacing:0em;}.cls-3{letter-spacing:-0.02em;}.cls-4{letter-spacing:0em;}.cls-5{fill:#000;}</style></defs><g id="Layer_2" data-name="Layer 2"><text class="cls-1" transform="translate(0 391.57)"><tspan class="cls-2">C</tspan><tspan x="88.41" y="0">ount</tspan><tspan class="cls-3" x="454.24" y="0">r</tspan><tspan x="543.12" y="0">y Sh</tspan><tspan class="cls-4" x="852.22" y="0">a</tspan><tspan x="943.85" y="0">ck</tspan></text><path class="cls-5" d="M1332,478.25a10,10,0,0,1,0,20H1183.21q-2.32-10.14-5.56-20Z" transform="translate(-396.56 -321.25)"/><path class="cls-5" d="M1183.21,498.25h-20.65a204.12,204.12,0,0,0-6.19-20h21.28Q1180.88,488.11,1183.21,498.25Z" transform="translate(-396.56 -321.25)"/><path class="cls-5" d="M1177.65,478.25h-21.28c-29.24-79.86-106-137-195.87-137s-166.63,57.14-195.87,137H743.35a228.72,228.72,0,0,1,434.3,0Z" transform="translate(-396.56 -321.25)"/><path class="cls-5" d="M1162.56,498.25H758.44a204.12,204.12,0,0,1,6.19-20h391.74A204.12,204.12,0,0,1,1162.56,498.25Z" transform="translate(-396.56 -321.25)"/><path class="cls-5" d="M743.35,478.25h21.28a204.12,204.12,0,0,0-6.19,20H737.79Q740.12,488.11,743.35,478.25Z" transform="translate(-396.56 -321.25)"/><path class="cls-5" d="M588,478.25H743.35q-3.23,9.86-5.56,20H588a10,10,0,0,1,0-20Z" transform="translate(-396.56 -321.25)"/></g></svg>